<svg width="56" height="56" viewBox="0 0 56 56" fill="none" xmlns="http://www.w3.org/2000/svg">
<path d="M28.0001 55.3234C43.0904 55.3234 55.3234 43.0903 55.3234 28.0001C55.3234 12.9098 43.0904 0.676758 28.0001 0.676758C12.9098 0.676758 0.676758 12.9098 0.676758 28.0001C0.676758 43.0903 12.9098 55.3234 28.0001 55.3234Z" fill="#FD6A02"/>
<path d="M34.1601 27.2261H38.8306H39.3556L44.9984 17.885H39.7989L36.4506 23.4305L33.0089 17.9433H27.7979L33.6195 27.2261H34.1601Z" fill="white"/>
<path d="M38.8151 28.8516H34.1562H33.6156L28.0156 38.076H33.2151L36.4856 32.6938L39.764 38.0993H44.9634L39.3556 28.8516H38.8151Z" fill="white"/>
<path d="M21.2065 21.9024C21.3659 21.8907 21.5215 21.8829 21.6654 21.8829H22.4782L26.6237 17.9901L21.6576 17.9668C19.8221 17.9668 18.1615 18.3868 16.7187 19.2112C15.8982 19.6779 15.1632 20.2612 14.5371 20.9457L13.6504 21.9062H21.1871L21.2065 21.9024Z" fill="white"/>
<path d="M30.1664 27.7629L23.9053 27.7902L20.2148 31.644H25.7564C25.4959 32.2196 25.1109 32.7135 24.5936 33.149C23.7031 33.8957 22.6298 34.2613 21.3114 34.2613C20.2109 34.2613 19.1881 34.0007 18.2703 33.4874C17.3642 32.9779 16.6448 32.2702 16.1353 31.3874C15.622 30.5007 15.3614 29.5557 15.3614 28.5796C15.3614 27.6307 15.6103 26.7129 16.1042 25.8535L16.112 25.8379C16.3142 25.4879 16.6098 25.0874 16.9909 24.6518L17.7998 23.7302L12.8881 23.6057L12.7131 23.8585C12.4098 24.2902 12.157 24.9357 12.1259 25.0252C11.6748 26.1568 11.4453 27.3624 11.4453 28.6068C11.4453 30.9013 12.1803 32.9507 13.6309 34.7007C15.5131 36.9679 18.0836 38.1152 21.2725 38.1152C23.9248 38.1152 26.0909 37.2713 27.7086 35.6029C29.3186 33.9424 30.1431 31.7024 30.1586 28.949L30.1664 27.7629Z" fill="white"/>
</svg>
